#N canvas 272 22 509 444 10;
#X msg 16 350 close;
#X obj 112 307 loadbang;
#X msg 110 332 stopbit 1;
#X obj 18 135 pack f f;
#X obj 11 41 hradio 25 1 0 16 empty empty empty 0 -8 0 10 -257985 -1
-1 0;
#X obj 36 72 hsl 150 30 0 255 0 0 empty empty empty -2 -8 0 10 -260097
-1 -1 0 1;
#X obj 54 113 int;
#X obj 89 247 r __SMS;
#X obj 94 360 comport 4 9600;
#X obj 91 278 convert.pd2ascii CR;
#X obj 20 211 s __SMS;
#X msg 21 164 list r \$1 \$2 1000;
#X msg 134 209 list r 0 255 1000;
#X msg 145 178 list r 0 0 1000;
#X obj 225 103 metro 1000;
#X obj 223 78 tgl 15 0 empty empty empty 17 7 0 10 -262144 -1 -1 1
1;
#X obj 228 154 sel 0 1 2 3;
#X obj 226 129 count.modulo 4;
#X msg 258 187 list r 1 255 0;
#X msg 275 207 list r 1 0 0;
#X connect 0 0 8 0;
#X connect 1 0 2 0;
#X connect 2 0 8 0;
#X connect 3 0 11 0;
#X connect 4 0 3 0;
#X connect 5 0 6 0;
#X connect 6 0 3 1;
#X connect 7 0 9 0;
#X connect 9 0 8 0;
#X connect 11 0 10 0;
#X connect 12 0 10 0;
#X connect 13 0 10 0;
#X connect 14 0 17 0;
#X connect 15 0 14 0;
#X connect 16 0 13 0;
#X connect 16 1 19 0;
#X connect 16 2 18 0;
#X connect 16 3 12 0;
#X connect 17 0 16 0;
#X connect 18 0 10 0;
#X connect 19 0 10 0;
